<?xml version="1.2" encoding="UTF-8" standalone="no"?>
<svg
   title="Logo of Plan First Legal Pty Ltd"
   baseProfile="full"
   xmlns:dc="http://purl.org/dc/elements/1.1/"
   xmlns:cc="http://creativecommons.org/ns#"
   xmlns:rdf="http://www.w3.org/1999/02/22-rdf-syntax-ns#"
   xmlns:svg="http://www.w3.org/2000/svg"
   xmlns="http://www.w3.org/2000/svg"
   viewBox="0 0 394.76001 162.57333"
   height="162.57333"
   width="394.76001"
   xml:space="preserve"
   id="svg2"
   version="1.1"><metadata
     id="metadata8"><rdf:RDF><cc:Work
         rdf:about=""><dc:format>image/svg+xml</dc:format><dc:type
           rdf:resource="http://purl.org/dc/dcmitype/StillImage" /></cc:Work></rdf:RDF></metadata><defs
     id="defs6" /><g
     transform="matrix(1.3333333,0,0,-1.3333333,0,162.57333)"
     id="g10"><g
       transform="scale(0.1)"
       id="g12"><path
         id="path14"
         style="fill:#851a27;fill-opacity:1;fill-rule:nonzero;stroke:none"
         d="m 1302.46,703.137 c -8.49,-7.625 -19.21,-11.434 -32.16,-11.434 h -64.75 v 90.215 h 64.75 c 12.95,0 23.67,-3.887 32.16,-11.652 8.49,-7.774 12.73,-18.993 12.73,-33.672 0,-14.676 -4.24,-25.828 -12.73,-33.457 z m 80.5,33.457 c 0,16.691 -2.52,31.437 -7.55,44.25 -5.04,12.801 -12.16,23.672 -21.37,32.586 -9.21,8.925 -20.22,15.683 -33.02,20.293 -12.81,4.601 -26.84,6.906 -42.09,6.906 H 1139.07 V 517.738 h 66.91 v 114.825 h 72.95 c 15.25,0 29.28,2.304 42.09,6.902 12.8,4.609 23.81,11.301 33.02,20.078 9.21,8.781 16.33,19.641 21.37,32.59 5.03,12.949 7.55,27.773 7.55,44.461" /><path
         id="path16"
         style="fill:#851a27;fill-opacity:1;fill-rule:nonzero;stroke:none"
         d="m 1480.1,853.148 h -63.03 v -335.41 h 63.03 v 335.41" /><path
         id="path18"
         style="fill:#851a27;fill-opacity:1;fill-rule:nonzero;stroke:none"
         d="m 1651.04,598.031 c 0,-12.09 -3.82,-21.152 -11.44,-27.199 -7.63,-6.043 -17.2,-9.062 -28.71,-9.062 -7.48,0 -13.67,1.503 -18.57,4.531 -4.89,3.019 -7.33,8.273 -7.33,15.754 0,8.054 3.02,13.816 9.06,17.265 6.05,3.457 13.82,5.469 23.31,6.043 l 33.68,2.16 z m 2.15,-80.293 h 60.87 v 137.703 c 0,29.641 -7.92,52.012 -23.75,67.122 -15.82,15.117 -38.85,22.664 -69.06,22.664 -14.39,0 -27.34,-2.305 -38.85,-6.903 -11.51,-4.609 -21.3,-10.722 -29.35,-18.351 -8.06,-7.625 -14.25,-16.18 -18.57,-25.684 -4.31,-9.492 -6.47,-19.141 -6.47,-28.926 l 63.03,-2.586 c 0,7.481 2.44,14.246 7.33,20.293 4.89,6.043 12.81,9.063 23.74,9.063 19.29,0 28.93,-11.516 28.93,-34.531 v -8.633 l -39.72,-2.16 c -11.8,-0.575 -23.1,-2.09 -33.89,-4.532 -10.79,-2.449 -20.28,-6.257 -28.48,-11.445 -8.21,-5.176 -14.75,-12.012 -19.64,-20.496 -4.9,-8.496 -7.35,-18.926 -7.35,-31.301 0,-21.582 6.77,-37.988 20.3,-49.207 13.52,-11.23 31.51,-16.836 53.95,-16.836 12.95,0 24.1,2.156 33.46,6.473 9.35,4.316 17.2,9.785 23.52,16.406 v -18.133" /><path
         id="path20"
         style="fill:#851a27;fill-opacity:1;fill-rule:nonzero;stroke:none"
         d="m 1963.99,517.738 v 136.407 c 0,14.394 -2.15,27.265 -6.47,38.632 -4.32,11.368 -10.28,20.938 -17.91,28.711 -7.63,7.774 -16.77,13.672 -27.41,17.696 -10.66,4.031 -22.45,6.043 -35.4,6.043 -15.26,0 -27.84,-2.586 -37.78,-7.774 -9.92,-5.176 -17.33,-11.648 -22.22,-19.422 v 22.879 h -59.57 V 517.738 h 63.02 v 123.887 c 0,13.523 3.74,24.395 11.22,32.598 7.49,8.203 17.55,12.293 30.22,12.293 12.09,0 21.66,-3.809 28.71,-11.434 7.05,-7.629 10.58,-18.633 10.58,-33.027 V 517.738 h 63.01" /><path
         id="path22"
         style="fill:#851a27;fill-opacity:1;fill-rule:nonzero;stroke:none"
         d="m 2088.32,517.738 h 66.9 v 135.547 h 114.4 v 58.699 h -114.4 v 69.934 h 140.3 v 58.711 h -207.2 V 517.738" /><path
         id="path24"
         style="fill:#851a27;fill-opacity:1;fill-rule:nonzero;stroke:none"
         d="m 2363.73,851.848 c -5.19,0 -10,-1.004 -14.46,-3.016 -4.47,-2.012 -8.42,-4.746 -11.88,-8.203 -3.44,-3.457 -6.18,-7.481 -8.2,-12.09 -2.01,-4.601 -3.02,-9.492 -3.02,-14.68 0,-10.359 3.6,-19.207 10.79,-26.543 7.2,-7.343 16.12,-11.003 26.77,-11.003 10.65,0 19.64,3.66 26.97,11.003 7.35,7.336 11.02,16.184 11.02,26.543 0,10.657 -3.67,19.649 -11.02,26.985 -7.33,7.344 -16.32,11.004 -26.97,11.004" /><path
         id="path26"
         style="fill:#851a27;fill-opacity:1;fill-rule:nonzero;stroke:none"
         d="m 2332.22,517.738 h 63.02 V 740.91 h -63.02 V 517.738" /><path
         id="path28"
         style="fill:#851a27;fill-opacity:1;fill-rule:nonzero;stroke:none"
         d="M 2510.07,715.441 V 740.91 H 2449.2 V 517.738 h 63.03 v 113.094 c 0,15.547 5.32,27.988 15.96,37.344 10.65,9.355 25.04,14.023 43.17,14.023 v 60.871 c -17.27,0 -30.58,-2.734 -39.92,-8.203 -9.36,-5.469 -16.49,-11.945 -21.37,-19.426" /><path
         id="path30"
         style="fill:#851a27;fill-opacity:1;fill-rule:nonzero;stroke:none"
         d="m 2760.64,631.047 c -6.75,5.039 -14.74,9.289 -23.95,12.734 -9.21,3.457 -19.42,6.621 -30.65,9.504 -6.62,1.727 -12.66,3.231 -18.13,4.531 -5.47,1.297 -10.07,2.801 -13.82,4.532 -3.74,1.726 -6.61,3.738 -8.63,6.043 -2.01,2.304 -3.02,5.468 -3.02,9.492 0,12.668 8.49,18.996 25.47,18.996 9.79,0 16.84,-2.52 21.15,-7.551 4.32,-5.039 6.76,-11.582 7.34,-19.637 l 62.59,3.446 c -0.86,10.363 -3.45,19.933 -7.77,28.711 -4.32,8.769 -10.21,16.398 -17.69,22.871 -7.49,6.476 -16.63,11.515 -27.42,15.117 -10.79,3.594 -23.24,5.391 -37.34,5.391 -28.2,0 -50.15,-6.329 -65.83,-18.993 -15.68,-12.668 -23.53,-29.785 -23.53,-51.367 0,-11.515 1.88,-20.937 5.62,-28.273 3.74,-7.344 9.06,-13.457 15.97,-18.348 6.91,-4.894 15.25,-8.926 25.04,-12.09 9.78,-3.164 20.57,-6.183 32.37,-9.062 8.06,-2.012 14.75,-3.809 20.08,-5.391 5.32,-1.594 9.49,-3.312 12.52,-5.187 3.01,-1.864 5.1,-3.953 6.26,-6.258 1.15,-2.305 1.72,-5.176 1.72,-8.633 0,-6.621 -2.52,-11.652 -7.55,-15.109 -5.04,-3.457 -11.88,-5.176 -20.51,-5.176 -10.93,0 -18.92,2.512 -23.96,7.551 -5.04,5.039 -7.84,11.726 -8.42,20.078 l -63.02,-3.457 c 2.3,-23.313 11.51,-41.231 27.62,-53.742 16.13,-12.52 38.57,-18.778 67.35,-18.778 29.35,0 51.94,6.688 67.77,20.067 15.83,13.39 23.74,31.445 23.74,54.179 0,10.071 -1.86,18.633 -5.6,25.684 -3.75,7.051 -9,13.098 -15.77,18.125" /><path
         id="path32"
         style="fill:#851a27;fill-opacity:1;fill-rule:nonzero;stroke:none"
         d="m 2960.73,686.516 v 54.394 h -52.23 l 0.43,73.82 h -63.03 l -0.43,-73.82 h -41.01 v -54.394 h 40.58 l -0.43,-97.989 c 0,-12.949 1.94,-24.168 5.83,-33.672 3.88,-9.492 9.35,-17.265 16.4,-23.308 7.05,-6.035 15.61,-10.567 25.68,-13.594 10.08,-3.019 21.15,-4.531 33.24,-4.531 8.63,0 15.47,0.281 20.51,0.859 5.03,0.574 9.85,1.153 14.46,1.727 v 56.125 c -2.3,-0.578 -4.97,-1.086 -7.99,-1.516 -3.02,-0.429 -6.83,-0.644 -11.44,-0.644 -8.92,0 -16.76,2.511 -23.53,7.55 -6.75,5.04 -10.13,13.739 -10.13,26.114 l 0.43,82.879 h 52.66" /><path
         id="path34"
         style="fill:#851a27;fill-opacity:1;fill-rule:nonzero;stroke:none"
         d="m 1205.98,437.289 h -66.91 V 114.398 h 207.63 v 59.141 h -140.72 v 263.75" /><path
         id="path36"
         style="fill:#851a27;fill-opacity:1;fill-rule:nonzero;stroke:none"
         d="m 1439.08,247.785 c 0.87,14.387 5.4,25.469 13.6,33.235 8.2,7.773 19.06,11.66 32.59,11.66 14.39,0 25.11,-4.035 32.16,-12.09 7.05,-8.059 10.86,-18.996 11.44,-32.805 z m 124.11,64.746 c -9.35,9.504 -20.57,16.77 -33.67,21.809 -13.09,5.027 -27.7,7.547 -43.82,7.547 -16.69,0 -31.94,-2.664 -45.75,-7.989 -13.82,-5.32 -25.76,-13.015 -35.83,-23.093 -10.08,-10.071 -17.92,-22.227 -23.53,-36.477 -5.61,-14.238 -8.42,-30.43 -8.42,-48.562 0,-17.844 2.81,-33.957 8.42,-48.344 5.61,-14.391 13.45,-26.621 23.53,-36.692 10.07,-10.07 22.23,-17.769 36.47,-23.089 14.25,-5.332 29.86,-7.993 46.84,-7.993 12.95,0 25.26,1.801 36.91,5.391 11.66,3.602 22.02,8.633 31.08,15.109 9.06,6.473 16.62,14.102 22.67,22.883 6.03,8.778 10.06,18.5 12.08,29.141 l -63.46,3.019 c -2.3,-7.769 -6.97,-13.812 -14.02,-18.132 -7.06,-4.309 -16.05,-6.469 -26.99,-6.469 -14.39,0 -25.61,4.101 -33.67,12.301 -8.06,8.199 -12.37,19.211 -12.95,33.019 h 153.24 v 25.039 c 0,17.266 -2.52,32.805 -7.54,46.621 -5.04,13.809 -12.24,25.469 -21.59,34.961" /><path
         id="path38"
         style="fill:#851a27;fill-opacity:1;fill-rule:nonzero;stroke:none"
         d="m 1800.82,220.59 c 0,-18.141 -4.89,-32.16 -14.67,-42.09 -9.78,-9.918 -22.45,-14.891 -37.99,-14.891 -15.83,0 -28.78,5.403 -38.85,16.192 -10.07,10.789 -15.11,26.109 -15.11,45.965 0,19.863 5.04,35.183 15.11,45.976 10.07,10.789 23.02,16.192 38.85,16.192 15.54,0 28.21,-4.973 37.99,-14.895 9.78,-9.93 14.67,-23.965 14.67,-42.09 z m 3.46,93.672 c -5.75,7.773 -14.32,14.316 -25.69,19.636 -11.36,5.325 -24.96,7.989 -40.79,7.989 -15.83,0 -30.29,-2.801 -43.39,-8.418 -13.08,-5.614 -24.38,-13.457 -33.88,-23.524 -9.49,-10.07 -16.91,-22.226 -22.23,-36.476 -5.32,-14.246 -7.99,-30.145 -7.99,-47.703 0,-17.547 2.67,-33.446 7.99,-47.696 5.32,-14.25 12.74,-26.48 22.23,-36.691 9.5,-10.219 20.8,-18.059 33.88,-23.527 13.1,-5.461 27.56,-8.204 43.39,-8.204 14.68,0 27.34,2.313 37.99,6.911 10.65,4.601 19,10.211 25.03,16.832 v -31.942 c 0,-16.117 -4.81,-28.1404 -14.45,-36.0506 -9.65,-7.9101 -22.24,-11.8671 -37.78,-11.8671 -14.39,0 -25.97,3.0273 -34.74,9.0703 -8.78,6.039 -13.89,14.5273 -15.33,25.4687 l -62.59,-2.1601 c 2.01,-12.6719 5.83,-24.3282 11.43,-34.9688 5.62,-10.6406 13.17,-19.7109 22.67,-27.2031 9.49,-7.4766 20.94,-13.3086 34.32,-17.47658 C 1717.72,2.08984 1733.19,0 1750.75,0 c 17.27,0 32.8,2.51953 46.62,7.55859 13.81,5.03121 25.62,12.16021 35.39,21.37111 9.79,9.2109 17.35,20.3594 22.67,33.4609 5.32,13.0782 7.99,27.6914 7.99,43.8004 V 337.57 h -59.14 v -23.308" /><path
         id="path40"
         style="fill:#851a27;fill-opacity:1;fill-rule:nonzero;stroke:none"
         d="m 2030.48,194.691 c 0,-12.089 -3.82,-21.152 -11.44,-27.203 -7.62,-6.039 -17.19,-9.058 -28.71,-9.058 -7.48,0 -13.67,1.5 -18.56,4.531 -4.89,3.019 -7.34,8.269 -7.34,15.75 0,8.059 3.02,13.82 9.07,17.269 6.04,3.461 13.81,5.469 23.31,6.04 l 33.67,2.16 z m -29.79,147.196 c -14.39,0 -27.34,-2.305 -38.84,-6.903 -11.52,-4.609 -21.3,-10.722 -29.36,-18.351 -8.06,-7.625 -14.25,-16.18 -18.56,-25.684 -4.32,-9.492 -6.48,-19.14 -6.48,-28.926 l 63.03,-2.585 c 0,7.48 2.44,14.246 7.33,20.292 4.9,6.043 12.82,9.063 23.74,9.063 19.29,0 28.93,-11.516 28.93,-34.531 v -8.633 l -39.72,-2.16 c -11.8,-0.574 -23.09,-2.09 -33.88,-4.531 -10.8,-2.45 -20.29,-6.258 -28.49,-11.446 -8.2,-5.176 -14.75,-12.012 -19.64,-20.504 -4.89,-8.488 -7.34,-18.918 -7.34,-31.289 0,-21.59 6.76,-37.988 20.29,-49.211 13.52,-11.226 31.51,-16.84 53.95,-16.84 12.95,0 24.11,2.161 33.46,6.481 9.36,4.312 17.2,9.781 23.53,16.402 v -18.133 h 60.87 v 137.704 c 0,29.64 -7.92,52.011 -23.75,67.121 -15.82,15.117 -38.85,22.664 -69.07,22.664" /><path
         id="path42"
         style="fill:#851a27;fill-opacity:1;fill-rule:nonzero;stroke:none"
         d="m 2145.3,114.398 h 63.03 V 449.809 H 2145.3 V 114.398" /><path
         id="path44"
         style="fill:#b19365;fill-opacity:1;fill-rule:nonzero;stroke:none"
         d="m 367.887,473.039 v 195.938 c 62.176,8.597 112.062,55.648 124.586,116.484 H 680.309 C 665.906,619.781 533.559,487.445 367.887,473.039 Z m 555.527,81.711 42.422,42.422 -224.293,224.297 C 738.305,1041.36 558.535,1219.27 337.887,1219.27 v -60 c 179.461,0 327.156,-138.23 342.422,-313.809 H 307.887 V 435.805 l 248.289,-248.293 42.422,42.422 -188.34,188.339 c 24.652,4.485 48.531,11.184 71.418,19.934 L 717.719,202.16 760.141,244.582 539.125,465.598 c 21.086,12.179 40.973,26.172 59.438,41.816 L 823.391,282.59 865.813,325.012 641.34,549.484 c 15.922,18.145 30.285,37.668 42.793,58.454 l 219.68,-219.684 42.421,42.422 -233.894,233.898 c 10.121,25.031 17.781,51.297 22.726,78.516 L 923.414,554.75" /><path
         id="path46"
         style="fill:#b19365;fill-opacity:1;fill-rule:nonzero;stroke:none"
         d="M 0,112.289 H 60 V 1209.42 H 0 V 112.289" /></g></g></svg>
